<?xml version="1.0" encoding="utf-8" ?>
<svg xmlns="http://www.w3.org/2000/svg" xmlns:xlink="http://www.w3.org/1999/xlink" width="18" height="18">
	<path fill="rgb(33,63,133)" stroke="none" d="M10.9748 12.0059C9.8168 12.9381 8.34829 13.4999 6.75003 13.4999C3.02777 13.4999 0 10.4714 0 6.74993C0 3.02772 3.02777 0 6.75003 0C10.4723 0 13.5001 3.02772 13.5001 6.74993C13.5001 8.33316 12.9481 9.7889 12.0308 10.9409L17.7818 16.7203C18.0736 17.0143 18.0728 17.4891 17.7788 17.7808C17.4841 18.0741 17.0101 18.0726 16.7183 17.7793L10.9748 12.0059ZM12.0001 6.74993C12.0001 3.85496 9.6443 1.49998 6.75003 1.49998C3.85502 1.49998 1.50001 3.85496 1.50001 6.74993C1.50001 9.64415 3.85502 11.9999 6.75003 11.9999C9.6443 11.9999 12.0001 9.64415 12.0001 6.74993Z" fill-rule="evenodd"/>
</svg>
