<?xml version="1.0" encoding="utf-8" ?>
<svg xmlns="http://www.w3.org/2000/svg" xmlns:xlink="http://www.w3.org/1999/xlink" width="20" height="16">
	<path fill="rgb(255,255,255)" stroke="none" transform="matrix(0.95 0 0 0.95 0.5 -0.0192871)" d="M19.5833 14.9968C18.435 14.9968 17.5 14.0629 17.5 12.9139L17.5 9.16474C17.5 6.13121 15.6333 3.37346 12.8308 2.2287C12.5183 0.923139 11.3642 0 10 0C8.65667 0 7.48 0.942302 7.16667 2.2287C4.36583 3.37346 2.5 6.13038 2.5 9.16474L2.5 12.9139C2.5 14.0629 1.565 14.9968 0.416667 14.9968C0.186667 14.9968 0 15.1835 0 15.4134C0 15.6434 0.186667 15.83 0.416667 15.83L19.5833 15.83C19.8133 15.83 20 15.6434 20 15.4134C20 15.1835 19.8133 14.9968 19.5833 14.9968"/>
</svg>
