<?xml version="1.0" encoding="utf-8" ?>
<svg xmlns="http://www.w3.org/2000/svg" xmlns:xlink="http://www.w3.org/1999/xlink" width="121" height="56">
	<path fill="rgb(33,63,133)" stroke="none" transform="translate(0.0273438 0.0273438)" d="M0 55.43L33.4227 55.43L33.4227 39.9059L31.3589 39.9059L45.3855 24.738L54.7 34.4999L54.7 0L0 0L0 55.43Z"/>
	<path fill="rgb(33,63,133)" stroke="none" transform="translate(36.4806 32.3622)" d="M17.8248 23.2033L18.2357 23.2033L18.2266 19.6237C17.7791 19.5963 17.3499 19.4776 16.939 19.2767C16.5281 19.0758 16.1355 18.7836 15.7519 18.3909C16.3911 17.5234 16.8751 16.4551 17.213 15.204C17.5508 13.953 17.7152 12.5376 17.7152 10.9761C17.7152 7.5244 16.9299 4.83972 15.3593 2.90383C13.7886 0.967944 11.6153 0 8.84847 0C6.08161 0 3.9083 0.967944 2.34681 2.90383C0.785313 4.83972 0 7.53353 0 10.9761C0 14.4005 0.794445 17.0851 2.36507 19.0302C3.9357 20.9752 6.09988 21.9431 8.84847 21.9431C9.71597 21.9431 10.5104 21.8427 11.2227 21.66C11.9349 21.4683 12.6107 21.1852 13.2407 20.7925C13.9165 21.6326 14.6196 22.2445 15.3319 22.628C16.0533 23.0115 16.8751 23.2033 17.8248 23.2033ZM10.3187 16.4003C10.7113 16.6833 11.0674 17.0486 11.3596 17.5052C10.9853 17.7791 10.5926 17.9892 10.1908 18.1261C9.77076 18.2631 9.32331 18.3362 8.84847 18.3362C7.28698 18.3362 6.09988 17.7061 5.28717 16.4642C4.47446 15.2223 4.07267 13.3869 4.07267 10.9761C4.07267 8.538 4.47446 6.69343 5.28717 5.43327C6.09074 4.17312 7.28698 3.54304 8.84847 3.54304C10.4465 3.54304 11.6427 4.19138 12.4372 5.47893C13.2316 6.77561 13.6334 8.70237 13.6334 11.2683Q13.6334 12.4189 13.5238 13.2681C13.4508 13.8343 13.3412 14.3 13.186 14.6744C12.6107 13.8708 11.9806 13.2681 11.2866 12.8664C10.5926 12.4646 9.79815 12.2363 8.90326 12.1815L8.90326 15.8158C9.44202 15.9254 9.91686 16.1263 10.3187 16.4003Z" fill-rule="evenodd"/>
	<path fill="rgb(33,63,133)" stroke="none" transform="translate(57.054 38.2977)" d="M8.69324 14.3L9.00371 15.6515L12.4737 15.6515C12.3915 15.1766 12.3367 14.7748 12.3002 14.437C12.2637 14.0991 12.2454 13.8069 12.2454 13.5695L12.2454 4.55664C12.2454 3.12299 11.7523 2.00894 10.757 1.20536C9.76163 0.401788 8.37363 0 6.60211 0C5.28717 0 4.13659 0.246552 3.15038 0.748787C2.16418 1.24189 1.35147 1.99068 0.712261 2.98602L3.17778 4.54751C3.5887 3.97222 4.0818 3.52478 4.64796 3.23257C5.21412 2.93123 5.85332 2.78512 6.54732 2.78512C7.24132 2.78512 7.78008 2.94036 8.15447 3.2417C8.52887 3.55217 8.72063 3.98136 8.72063 4.54751L8.72063 5.75288C5.71635 6.11814 3.51565 6.79387 2.10939 7.76182Q0 9.21373 0 11.734C0 13.0125 0.365262 14.0169 1.09579 14.7383C1.82631 15.4597 2.83078 15.825 4.1092 15.825C4.94017 15.825 5.73461 15.6971 6.50166 15.4415C7.26871 15.1858 7.99924 14.8022 8.69324 14.3ZM8.59279 8.17398C8.59583 8.17357 8.59888 8.17315 8.60192 8.17274L8.59279 8.17274L8.59279 8.17398ZM8.59279 8.17398C6.85333 8.4115 5.57797 8.79459 4.7758 9.31418Q3.57044 10.0949 3.57044 11.4236C3.57044 11.9532 3.71654 12.355 3.99962 12.6381C4.2827 12.9211 4.69362 13.0672 5.21412 13.0672C5.7894 13.0672 6.35556 12.9303 6.91258 12.6655C7.46961 12.4006 8.03576 11.9897 8.59279 11.451L8.59279 8.17398Z" fill-rule="evenodd"/>
	<path fill="rgb(33,63,133)" stroke="none" transform="translate(73.9838 32.6271)" d="M0 21.3222L0 0L3.63436 0L3.63436 21.3222L0 21.3222Z"/>
	<path fill="rgb(33,63,133)" stroke="none" transform="translate(81.3347 38.3069)" d="M8.69324 14.3L9.01284 15.6423L12.4737 15.6423C12.3915 15.1675 12.3367 14.7657 12.3002 14.4278C12.2637 14.09 12.2454 13.7978 12.2454 13.5604L12.2454 4.55664C12.2454 3.12299 11.7523 2.00894 10.757 1.20536C9.76163 0.401788 8.37363 0 6.60211 0C5.28717 0 4.13659 0.246552 3.15038 0.748787C2.16418 1.24189 1.35147 1.99068 0.712261 2.98602L3.17778 4.54751C3.5887 3.97222 4.0818 3.52478 4.64796 3.23257C5.21412 2.93123 5.85332 2.78512 6.54732 2.78512C7.24132 2.78512 7.78008 2.94036 8.15447 3.2417C8.52887 3.55217 8.72063 3.98136 8.72063 4.54751L8.72063 5.75288C5.71635 6.11814 3.51565 6.79387 2.10939 7.76182Q0 9.21373 0 11.734C0 13.0125 0.365262 14.0169 1.09579 14.7383C1.82631 15.4597 2.83078 15.825 4.1092 15.825C4.94017 15.825 5.73461 15.6971 6.50166 15.4415C7.26871 15.1858 7.99924 14.8022 8.69324 14.3ZM8.60192 8.16485C8.60496 8.16443 8.60801 8.16402 8.61105 8.16361L8.60192 8.16361L8.60192 8.16485ZM8.60192 8.16485C6.86246 8.40236 5.58711 8.78546 4.78493 9.30505Q3.57957 10.0858 3.57957 11.4144C3.57957 11.9441 3.72567 12.3459 4.00875 12.6289C4.29183 12.912 4.70275 13.0581 5.22325 13.0581C5.79853 13.0581 6.36469 12.9211 6.92171 12.6563C7.47874 12.3915 8.0449 11.9806 8.60192 11.4418L8.60192 8.16485Z" fill-rule="evenodd"/>
	<path fill="rgb(33,63,133)" stroke="none" transform="translate(96.7214 33.668)" d="M5.62503 15.6697C5.62503 16.4185 5.72548 16.9025 5.93551 17.1217C6.14553 17.3499 6.53819 17.4595 7.11348 17.4595C7.34177 17.4595 7.58832 17.4504 7.844 17.4321C8.09968 17.4139 8.35537 17.3865 8.62018 17.3499L8.62018 20.3451C8.21839 20.4273 7.76182 20.5003 7.24132 20.546C6.72082 20.5916 6.17293 20.619 5.59764 20.619C4.34662 20.619 3.43346 20.3268 2.85818 19.7515C2.28289 19.1763 1.99068 18.2631 1.99068 17.0121L1.99068 7.91705L0 7.91705L0 4.92191L1.99068 4.92191L1.99068 0L5.62503 0L5.62503 4.92191L8.62018 4.92191L8.62018 7.91705L5.62503 7.91705L5.62503 15.6697L5.62503 15.6697Z"/>
	<path fill="rgb(33,63,133)" stroke="none" transform="translate(107.542 38.2886)" d="M1.74413 2.10939C0.584419 3.51565 0 5.4698 0 7.97184C0 10.4648 0.575288 12.4098 1.76239 13.8252C2.9221 15.2406 4.52925 15.9437 6.58385 15.9437Q9.65205 15.9437 11.4053 13.8343C12.565 12.428 13.1494 10.4739 13.1494 7.97184C13.1494 5.4698 12.565 3.51565 11.4053 2.10939C10.2456 0.703129 8.63845 0 6.57472 0C4.51099 0 2.90383 0.703129 1.74413 2.10939ZM4.39228 11.6336C3.9083 10.8209 3.66175 9.60639 3.66175 7.97184C3.66175 6.35556 3.9083 5.15019 4.38314 4.36488C4.86712 3.5613 5.58851 3.15952 6.56558 3.15952C7.55179 3.15952 8.28232 3.55217 8.75716 4.34662C9.232 5.13193 9.46942 6.34643 9.46942 7.98098C9.46942 9.61552 9.232 10.8391 8.74802 11.6427C8.26405 12.4463 7.54266 12.8481 6.56558 12.8481C5.60677 12.8481 4.87625 12.4372 4.39228 11.6336Z" fill-rule="evenodd"/>
</svg>
